<?xml version="1.0" encoding="utf-8"?>
<!-- Generator: Adobe Illustrator 26.0.3, SVG Export Plug-In . SVG Version: 6.00 Build 0)  -->
<svg version="1.0" id="katman_1" xmlns="http://www.w3.org/2000/svg" xmlns:xlink="http://www.w3.org/1999/xlink" x="0px" y="0px"
	 viewBox="0 0 600 450" style="enable-background:new 0 0 600 450;" xml:space="preserve">
<style type="text/css">
	.st0{fill:#0F2133;}
	.st1{clip-path:url(#SVGID_00000070098899187817504620000005702919071792453566_);fill:#0F2133;}
</style>
<g>
	<path class="st0" d="M239.2,259.4c-7.9,0-12.8-3.7-16.3-7.9l-0.1,22.5l-14.9-0.1l0.3-68.2l14.9,0.1l0,7.6c3.7-4.9,8.7-8.5,16.4-8.4
		c12.3,0.1,23.9,9.7,23.8,27.3v0.2C263.1,249.9,251.6,259.5,239.2,259.4L239.2,259.4z M248.3,232.1c0-8.7-5.8-14.5-12.8-14.6
		c-7,0-12.8,5.7-12.8,14.4v0.2c0,8.7,5.7,14.5,12.7,14.6c7,0,12.9-5.6,12.9-14.4V232.1z M318.1,237.7l-36.6-0.2
		c1.4,6.8,6.1,10.3,12.8,10.4c5,0,8.6-1.5,12.8-5.3l8.5,7.6c-4.9,6.1-12,9.7-21.5,9.7c-15.8-0.1-27.4-11.2-27.3-27.3v-0.2
		c0.1-15,10.8-27.3,26.1-27.2c17.5,0.1,25.5,13.7,25.4,28.6v0.2C318.3,235.5,318.2,236.4,318.1,237.7L318.1,237.7z M292.8,217.1
		c-6.2,0-10.2,4.4-11.4,11.1l22.4,0.1C303,221.7,299.1,217.2,292.8,217.1L292.8,217.1z M355.4,221.1c-9.9,0-16,5.9-16.1,18.4
		l-0.1,19.4l-14.9-0.1l0.3-52.5l14.9,0.1l-0.1,10.6c3.1-7.2,8-11.9,16.8-11.5l-0.1,15.6L355.4,221.1z M355.4,221.1"/>
	<path class="st0" d="M378.8,260.1c-7.4,0-15.6-2.5-22.5-8.1l6.4-9.8c5.7,4.1,11.6,6.3,16.5,6.4c4.3,0,6.3-1.5,6.3-3.9v-0.2
		c0-3.2-5.1-4.3-10.8-6.1c-7.3-2.2-15.7-5.7-15.6-15.9v-0.2c0.1-10.7,8.7-16.6,19.3-16.6c6.7,0,13.9,2.3,19.6,6.2l-5.7,10.3
		c-5.2-3.1-10.4-5-14.2-5c-3.6,0-5.5,1.5-5.5,3.6v0.2c0,2.9,5,4.3,10.6,6.3c7.3,2.5,15.9,6.1,15.8,15.7v0.2
		C398.9,254.9,390.2,260.1,378.8,260.1L378.8,260.1z M405.3,200.9l0.1-13.2l15.7,0.1L421,201L405.3,200.9z M405.4,259.2l0.3-52.5
		l14.9,0.1l-0.3,52.5L405.4,259.2z M467.3,259.6l0-7.5c-3.7,4.9-8.7,8.5-16.4,8.4c-12.3-0.1-23.9-9.7-23.8-27.3V233
		c0.1-17.5,11.6-27.1,24.1-27c7.9,0,12.8,3.7,16.3,7.9l0.1-25.9l14.9,0.1l-0.4,71.5L467.3,259.6z M467.7,233.2
		c0-8.7-5.7-14.5-12.7-14.6c-7,0-12.9,5.6-12.9,14.4v0.2c0,8.7,5.8,14.5,12.8,14.6c7,0,12.8-5.7,12.8-14.4V233.2z M539.6,238.8
		l-36.6-0.2c1.4,6.8,6.1,10.3,12.8,10.4c5,0,8.6-1.5,12.8-5.3l8.5,7.6c-4.9,6.1-12,9.7-21.5,9.7c-15.8-0.1-27.4-11.2-27.3-27.3v-0.2
		c0.1-15,10.8-27.3,26.1-27.2c17.5,0.1,25.5,13.7,25.4,28.6v0.2C539.8,236.6,539.7,237.5,539.6,238.8L539.6,238.8z M514.3,218.2
		c-6.2,0-10.2,4.4-11.4,11.1l22.4,0.1C524.5,222.8,520.6,218.3,514.3,218.2L514.3,218.2z M514.3,218.2"/>
	<g>
		<defs>
			<rect id="SVGID_1_" x="58" y="174.7" width="483" height="100.6"/>
		</defs>
		<clipPath id="SVGID_00000030468022458753059510000007565430206087524247_">
			<use xlink:href="#SVGID_1_"  style="overflow:visible;"/>
		</clipPath>
		<path style="clip-path:url(#SVGID_00000030468022458753059510000007565430206087524247_);fill:#0F2133;" d="M184.8,205.6
			l-0.1,29.3c0,7.1-3.7,10.7-9.4,10.6c-5.7,0-9-3.7-9-10.7l0.1-15.4c-2.2,0.5-4.4,0.8-6.7,0.8c-2.8,0-5.6-0.4-8.2-1.3l-0.1,20.4
			c-0.1,12.1,6.5,19.5,17.7,19.6c7.6,0,12-4,15.4-8.3l0,7.4l14.9,0.1l0.3-52.5L184.8,205.6z M184.8,205.6"/>
		<path style="clip-path:url(#SVGID_00000030468022458753059510000007565430206087524247_);fill:#0F2133;" d="M174.8,175.9l-1.3-1.2
			h-23.8l14.6,12.9c1.4,1.2,2.2,3,2.4,4.8c0.1,1.9-0.5,3.7-1.7,5.1c-1.3,1.5-3.2,2.4-5.3,2.4c-1.7,0-3.3-0.6-4.6-1.7l-20.3-17.8
			c-4.1-3.6-9.4-5.6-14.9-5.6c-6.5,0-12.8,2.8-17.1,7.7c-8.2,9.4-7.3,23.7,2,32l20.3,17.8c1.4,1.2,2.2,3,2.4,4.8
			c0.1,1.8-0.5,3.7-1.7,5.1c-1.3,1.5-3.3,2.4-5.3,2.4c-1.7,0-3.3-0.6-4.6-1.7l-20.3-17.8c-4.5-3.9-10.4-5.9-16.4-5.5
			c-6.1,0.4-11.6,3.1-15.6,7.7c-4,4.5-6,10.4-5.6,16.5c0.4,6,3.1,11.5,7.6,15.5l1.3,1.1h23.8l-14.6-12.9c-1.4-1.2-2.3-3-2.4-4.8
			c-0.1-1.9,0.5-3.7,1.7-5.1c1.2-1.4,3-2.2,4.8-2.4c1.9-0.1,3.7,0.5,5.1,1.7l20.3,17.8c3.9,3.4,8.9,5.3,14,5.5h1.8
			c6.2-0.3,12-3,16.2-7.7c8.2-9.4,7.3-23.7-2-32l-20.3-17.8c-1.4-1.2-2.2-3-2.4-4.8c-0.1-1.8,0.5-3.7,1.7-5.1c2.6-2.9,7-3.2,9.9-0.6
			l20.3,17.8h0c4.1,3.6,9.4,5.6,14.9,5.6c6.5,0,12.8-2.8,17.1-7.7c3.6-4.1,5.6-9.5,5.6-15C182.4,186.4,179.7,180.2,174.8,175.9
			L174.8,175.9z M174.8,175.9"/>
	</g>
</g>
</svg>
